<svg width="36" height="36" viewBox="0 0 36 36" fill="none" xmlns="http://www.w3.org/2000/svg">
<rect width="36" height="36" fill="white"/>
<path d="M8.63121 24.6539L8.77463 22.9125L10.4987 24.2221C10.7659 24.4251 10.84 24.7953 10.6716 25.0855C10.4858 25.4056 10.0745 25.5124 9.75649 25.3232L8.63121 24.6539Z" fill="#312A62" stroke="#312A62" stroke-width="0.133515"/>
<path d="M3.92102 33.5267L5.36426 27.6253C5.41217 27.4294 5.65167 27.3553 5.80187 27.4899L6.88179 28.4577C6.95547 28.5238 6.98659 28.6251 6.96268 28.7211L5.65872 33.9556C5.5507 34.3892 5.13935 34.6767 4.69501 34.6291C4.15664 34.5714 3.7924 34.0526 3.92102 33.5267Z" fill="#312A62" stroke="#312A62" stroke-width="0.133515"/>
<path d="M4.80246 21.6027L4.07664 22.0296C3.95429 22.1016 3.87918 22.233 3.87918 22.3749V24.5157C3.87918 24.9397 3.53546 25.2834 3.11146 25.2834C2.68747 25.2834 2.34375 24.9397 2.34375 24.5157V21.9136C2.34375 21.6421 2.48128 21.3891 2.70913 21.2414L5.63021 19.3481C5.8362 19.2146 6.08356 19.1501 6.32363 19.2014C7.99964 19.5595 8.51066 20.9721 8.55221 21.6785L8.15166 26.6853L10.1084 28.5269C10.3102 28.7169 10.4363 28.9736 10.4632 29.2494L10.87 33.4199C10.9186 33.918 10.5839 34.3726 10.0938 34.474C9.52124 34.5924 8.97313 34.186 8.92019 33.6037L8.5767 29.8253C8.56095 29.652 8.48085 29.4909 8.3522 29.3737L5.36778 26.6558C5.0167 26.3361 4.82553 25.8771 4.84587 25.4026L5.00354 21.7235C5.00807 21.6178 4.89367 21.549 4.80246 21.6027Z" fill="#312A62" stroke="#312A62" stroke-width="0.133515"/>
<path d="M8.75248 16.8052C8.75248 17.8788 7.94123 18.7412 6.95002 18.7412C5.95882 18.7412 5.14757 17.8788 5.14757 16.8052C5.14757 15.7316 5.95882 14.8692 6.95002 14.8692C7.94123 14.8692 8.75248 15.7316 8.75248 16.8052Z" fill="#312A62" stroke="#312A62" stroke-width="0.133515"/>
<path d="M29.6866 21.2506C29.7846 21.1247 29.762 20.9432 29.6361 20.8452L27.5841 19.2481C27.4582 19.1501 27.2767 19.1728 27.1787 19.2987C27.0807 19.4246 27.1033 19.6061 27.2293 19.7041L29.0532 21.1237L27.6336 22.9476C27.5356 23.0735 27.5582 23.2551 27.6841 23.3531C27.8101 23.4511 27.9916 23.4284 28.0896 23.3025L29.6866 21.2506ZM14.3343 29.8661C14.4304 29.7287 14.5393 29.5817 14.6608 29.4265L14.2058 29.0703C14.0785 29.2329 13.9634 29.3883 13.8608 29.535L14.3343 29.8661ZM15.3788 28.5819C15.6121 28.3266 15.8701 28.0597 16.1523 27.7852L15.7494 27.371C15.4593 27.6532 15.1934 27.9282 14.9522 28.1921L15.3788 28.5819ZM16.9729 27.0282C17.2421 26.7922 17.5275 26.5536 17.8286 26.3144L17.4692 25.862C17.1607 26.107 16.8682 26.3516 16.592 26.5936L16.9729 27.0282ZM18.7183 25.6411C19.013 25.4288 19.3199 25.2177 19.6388 25.0095L19.3229 24.5256C18.9964 24.7388 18.6822 24.9549 18.3805 25.1724L18.7183 25.6411ZM20.5876 24.4206C20.9026 24.235 21.2276 24.0531 21.5624 23.8761L21.2924 23.3653C20.9496 23.5465 20.6168 23.7327 20.2943 23.9228L20.5876 24.4206ZM22.5601 23.3781C22.8919 23.2221 23.2321 23.0714 23.5806 22.9272L23.3596 22.3933C23.0025 22.5411 22.654 22.6954 22.3142 22.8552L22.5601 23.3781ZM24.6223 22.5249C24.9676 22.401 25.3203 22.2837 25.6801 22.1739L25.5115 21.6213C25.1426 21.7338 24.7811 21.8541 24.4272 21.9811L24.6223 22.5249ZM26.7547 21.8745C27.1109 21.7846 27.4735 21.7023 27.8424 21.6282L27.7287 21.0617C27.3504 21.1376 26.9785 21.2221 26.6133 21.3143L26.7547 21.8745ZM28.9407 21.4358C29.1238 21.4084 29.3084 21.383 29.4944 21.3599L29.4229 20.7865C29.2322 20.8103 29.0429 20.8363 28.8551 20.8644L28.9407 21.4358Z" fill="#9D91ED"/>
<mask id="mask0_249_14524" style="mask-type:alpha" maskUnits="userSpaceOnUse" x="26" y="7" width="10" height="12">
<rect width="10" height="12" transform="matrix(-1 0 0 1 36 7)" fill="#D9D9D9"/>
</mask>
<g mask="url(#mask0_249_14524)">
<path d="M31.0026 12.9984C30.7734 12.9984 30.5773 12.9005 30.4141 12.7047C30.2509 12.5089 30.1693 12.2734 30.1693 11.9984C30.1693 11.7234 30.2509 11.488 30.4141 11.2922C30.5773 11.0964 30.7734 10.9984 31.0026 10.9984C31.2318 10.9984 31.428 11.0964 31.5911 11.2922C31.7543 11.488 31.8359 11.7234 31.8359 11.9984C31.8359 12.2734 31.7543 12.5089 31.5911 12.7047C31.428 12.9005 31.2318 12.9984 31.0026 12.9984ZM31.0026 17.9984C32.1207 16.8568 32.9557 15.7964 33.5078 14.8172C34.0599 13.838 34.3359 12.9318 34.3359 12.0984C34.3359 10.8484 34.0009 9.85261 33.3307 9.11094C32.6606 8.36928 31.8845 7.99844 31.0026 7.99844C30.1207 7.99844 29.3446 8.36928 28.6745 9.11094C28.0043 9.85261 27.6693 10.8484 27.6693 12.0984C27.6693 12.9318 27.9453 13.838 28.4974 14.8172C29.0495 15.7964 29.8845 16.8568 31.0026 17.9984Z" fill="#7F73CE"/>
</g>
</svg>
