<svg width="36" height="36" viewBox="0 0 36 36" fill="none" xmlns="http://www.w3.org/2000/svg">
<rect width="36" height="36" fill="white"/>
<rect x="28.7126" y="3.34277" width="1.66472" height="24.4853" rx="0.832362" fill="#312A62"/>
<path d="M28.4375 27.8274C28.4375 27.2144 28.9344 26.7176 29.5473 26.7176C30.1603 26.7176 30.6571 27.2144 30.6571 27.8274V30.6435C30.6571 30.7738 30.5515 30.8794 30.4213 30.8794H28.6733C28.5431 30.8794 28.4375 30.7738 28.4375 30.6435V27.8274Z" fill="#312A62"/>
<rect x="30.0845" y="9.77492" width="0.728317" height="0.242772" fill="#E6E3FF" stroke="#312A62" stroke-width="0.242772"/>
<rect x="30.4996" y="6.09737" width="0.728317" height="0.242772" fill="#E6E3FF" stroke="#312A62" stroke-width="0.242772"/>
<rect x="31.103" y="5.23993" width="4.66123" height="5.84041" rx="0.707508" fill="#E6E3FF" stroke="#312A62" stroke-width="0.471672"/>
<path d="M32.4261 8.00018C32.4169 8.00018 32.4094 7.99725 32.4035 7.99138C32.3976 7.98551 32.3947 7.97796 32.3947 7.96874V7.15117C32.3947 7.14195 32.3976 7.1344 32.4035 7.12853C32.4094 7.12266 32.4169 7.11973 32.4261 7.11973H32.8098C32.8819 7.11973 32.941 7.12979 32.9871 7.14992C33.0332 7.17004 33.0672 7.19897 33.089 7.2367C33.1116 7.2736 33.1229 7.31762 33.1229 7.36877C33.1229 7.39896 33.1171 7.42579 33.1053 7.44927C33.0944 7.47191 33.0806 7.49078 33.0638 7.50587C33.0479 7.52096 33.0328 7.53187 33.0185 7.53857C33.0504 7.55367 33.0785 7.5784 33.1028 7.61278C33.128 7.64716 33.1405 7.68741 33.1405 7.73353C33.1405 7.78887 33.128 7.83667 33.1028 7.87692C33.0785 7.91633 33.0424 7.94694 32.9946 7.96874C32.9477 7.9897 32.8898 8.00018 32.8211 8.00018H32.4261ZM32.6198 7.83667H32.7959C32.832 7.83667 32.8592 7.82619 32.8777 7.80523C32.8961 7.78426 32.9053 7.76036 32.9053 7.73353C32.9053 7.70418 32.8957 7.67945 32.8764 7.65932C32.858 7.6392 32.8311 7.62913 32.7959 7.62913H32.6198V7.83667ZM32.6198 7.4694H32.7846C32.819 7.4694 32.8445 7.46059 32.8613 7.44298C32.8789 7.42537 32.8877 7.40273 32.8877 7.37506C32.8877 7.34823 32.8789 7.32643 32.8613 7.30966C32.8445 7.29205 32.819 7.28324 32.7846 7.28324H32.6198V7.4694ZM33.5067 8.01276C33.4589 8.01276 33.4161 8.00186 33.3784 7.98006C33.3415 7.95826 33.3126 7.92639 33.2916 7.88447C33.2706 7.8417 33.2602 7.78971 33.2602 7.7285V7.37758C33.2602 7.36835 33.2631 7.36081 33.269 7.35494C33.2748 7.34907 33.2824 7.34613 33.2916 7.34613H33.4488C33.4581 7.34613 33.4656 7.34907 33.4715 7.35494C33.4773 7.36081 33.4803 7.36835 33.4803 7.37758V7.72095C33.4803 7.80313 33.5172 7.84422 33.591 7.84422C33.6253 7.84422 33.6526 7.83374 33.6727 7.81277C33.6937 7.79097 33.7042 7.76036 33.7042 7.72095V7.37758C33.7042 7.36835 33.7071 7.36081 33.713 7.35494C33.7188 7.34907 33.7264 7.34613 33.7356 7.34613H33.8928C33.9021 7.34613 33.9096 7.34907 33.9155 7.35494C33.9213 7.36081 33.9243 7.36835 33.9243 7.37758V7.96874C33.9243 7.97796 33.9213 7.98551 33.9155 7.99138C33.9096 7.99725 33.9021 8.00018 33.8928 8.00018H33.7469C33.7385 8.00018 33.731 7.99725 33.7243 7.99138C33.7184 7.98551 33.7155 7.97796 33.7155 7.96874V7.92094C33.6937 7.95113 33.6652 7.97419 33.63 7.99012C33.5956 8.00521 33.5545 8.01276 33.5067 8.01276ZM34.3414 8.01276C34.2869 8.01276 34.2404 8.00689 34.2018 7.99515C34.164 7.98257 34.133 7.96748 34.1087 7.94987C34.0852 7.93226 34.0676 7.91423 34.0559 7.89579C34.0441 7.8765 34.0378 7.86015 34.037 7.84673C34.0362 7.83751 34.0391 7.82996 34.0458 7.82409C34.0525 7.81738 34.0597 7.81403 34.0672 7.81403H34.2106C34.2131 7.81403 34.2152 7.81445 34.2169 7.81529C34.2186 7.81613 34.2211 7.8178 34.2244 7.82032C34.2353 7.82619 34.2462 7.83374 34.2571 7.84296C34.268 7.85134 34.2806 7.85889 34.2949 7.8656C34.3091 7.87231 34.3263 7.87566 34.3464 7.87566C34.3699 7.87566 34.3896 7.87105 34.4055 7.86183C34.4215 7.8526 34.4294 7.83877 34.4294 7.82032C34.4294 7.8069 34.4257 7.796 34.4181 7.78762C34.4106 7.77839 34.3951 7.76959 34.3716 7.7612C34.3489 7.75282 34.3146 7.74443 34.2684 7.73605C34.2248 7.72598 34.1867 7.71299 34.154 7.69706C34.1213 7.68028 34.0961 7.6589 34.0785 7.63291C34.0609 7.60608 34.0521 7.57379 34.0521 7.53606C34.0521 7.50252 34.063 7.47023 34.0848 7.43921C34.1066 7.40818 34.1385 7.38303 34.1804 7.36374C34.2223 7.34362 34.2739 7.33355 34.3351 7.33355C34.3837 7.33355 34.4257 7.33942 34.4609 7.35116C34.4969 7.36206 34.5271 7.37632 34.5514 7.39393C34.5766 7.41154 34.5955 7.42956 34.608 7.44801C34.6206 7.46646 34.6273 7.48323 34.6282 7.49832C34.629 7.50671 34.6265 7.51426 34.6206 7.52096C34.6148 7.52683 34.608 7.52977 34.6005 7.52977H34.4697C34.4663 7.52977 34.463 7.52935 34.4596 7.52851C34.4563 7.52683 34.4533 7.52516 34.4508 7.52348C34.4408 7.51845 34.4307 7.51174 34.4206 7.50336C34.4106 7.49497 34.3988 7.48742 34.3854 7.48072C34.372 7.47401 34.3552 7.47065 34.3351 7.47065C34.3125 7.47065 34.2949 7.47568 34.2823 7.48575C34.2697 7.49581 34.2634 7.50881 34.2634 7.52474C34.2634 7.53564 34.2668 7.5457 34.2735 7.55492C34.281 7.56415 34.2957 7.57253 34.3175 7.58008C34.3401 7.58763 34.3749 7.59601 34.4219 7.60524C34.4798 7.61446 34.5259 7.62955 34.5603 7.65052C34.5946 7.67064 34.6189 7.69454 34.6332 7.72221C34.6475 7.74904 34.6546 7.77755 34.6546 7.80774C34.6546 7.84799 34.6424 7.88363 34.6181 7.91465C34.5946 7.94568 34.5594 7.97 34.5125 7.98761C34.4655 8.00438 34.4085 8.01276 34.3414 8.01276ZM32.4257 10.0128C32.3419 10.0128 32.2723 10.001 32.2169 9.97754C32.1616 9.95323 32.1196 9.92178 32.0911 9.88321C32.0626 9.84464 32.0475 9.80355 32.0459 9.75994C32.0459 9.75324 32.0484 9.74737 32.0534 9.74234C32.0593 9.73647 32.066 9.73353 32.0735 9.73353H32.232C32.2438 9.73353 32.2526 9.73563 32.2584 9.73982C32.2651 9.74401 32.271 9.74946 32.276 9.75617C32.2827 9.76875 32.292 9.78091 32.3037 9.79265C32.3163 9.80439 32.3322 9.81403 32.3515 9.82158C32.3716 9.82828 32.3964 9.83164 32.4257 9.83164C32.4743 9.83164 32.5108 9.82409 32.5351 9.809C32.5603 9.79391 32.5729 9.77336 32.5729 9.74737C32.5729 9.72892 32.5662 9.71383 32.5527 9.70209C32.5393 9.68951 32.5175 9.67861 32.4873 9.66938C32.458 9.65932 32.4186 9.64926 32.3691 9.6392C32.3054 9.62578 32.2509 9.60859 32.2056 9.58763C32.1612 9.56583 32.1272 9.53774 32.1037 9.50336C32.0802 9.46814 32.0685 9.42453 32.0685 9.37255C32.0685 9.32139 32.0828 9.2757 32.1113 9.23545C32.1406 9.1952 32.1813 9.16375 32.2333 9.14111C32.2853 9.11847 32.3469 9.10715 32.4182 9.10715C32.476 9.10715 32.5268 9.1147 32.5704 9.12979C32.6148 9.14488 32.6521 9.16501 32.6823 9.19017C32.7125 9.21532 32.7351 9.24215 32.7502 9.27066C32.7662 9.29834 32.7745 9.32559 32.7754 9.35242C32.7754 9.35913 32.7729 9.36542 32.7678 9.37129C32.7628 9.37632 32.7565 9.37883 32.749 9.37883H32.5829C32.5737 9.37883 32.5657 9.37716 32.559 9.3738C32.5523 9.37045 32.5465 9.365 32.5414 9.35745C32.5364 9.339 32.523 9.32307 32.5012 9.30966C32.4802 9.2954 32.4525 9.28827 32.4182 9.28827C32.3813 9.28827 32.3523 9.29498 32.3314 9.3084C32.3113 9.32098 32.3012 9.34068 32.3012 9.36751C32.3012 9.38428 32.3066 9.39896 32.3175 9.41154C32.3293 9.42411 32.3481 9.43502 32.3741 9.44424C32.401 9.45346 32.4375 9.46311 32.4836 9.47317C32.5599 9.48742 32.6215 9.50545 32.6685 9.52725C32.7154 9.54822 32.7498 9.57589 32.7716 9.61027C32.7934 9.64381 32.8043 9.68615 32.8043 9.7373C32.8043 9.79432 32.788 9.8438 32.7553 9.88572C32.7234 9.92681 32.6789 9.95826 32.6219 9.98006C32.5649 10.0019 32.4995 10.0128 32.4257 10.0128ZM33.251 10.0002C33.1973 10.0002 33.1508 9.9918 33.1113 9.97503C33.0728 9.95742 33.043 9.93059 33.022 9.89453C33.0011 9.85763 32.9906 9.81026 32.9906 9.7524V9.5109H32.8925C32.8833 9.5109 32.8753 9.50797 32.8686 9.5021C32.8627 9.49623 32.8598 9.48868 32.8598 9.47946V9.37758C32.8598 9.36835 32.8627 9.36081 32.8686 9.35494C32.8753 9.34907 32.8833 9.34613 32.8925 9.34613H32.9906V9.1386C32.9906 9.12937 32.9935 9.12183 32.9994 9.11596C33.0061 9.11009 33.0137 9.10715 33.022 9.10715H33.1679C33.1772 9.10715 33.1847 9.11009 33.1906 9.11596C33.1965 9.12183 33.1994 9.12937 33.1994 9.1386V9.34613H33.3566C33.3658 9.34613 33.3734 9.34907 33.3793 9.35494C33.3851 9.36081 33.3881 9.36835 33.3881 9.37758V9.47946C33.3881 9.48868 33.3851 9.49623 33.3793 9.5021C33.3734 9.50797 33.3658 9.5109 33.3566 9.5109H33.1994V9.73479C33.1994 9.7633 33.2048 9.78594 33.2157 9.80271C33.2266 9.81948 33.2451 9.82787 33.2711 9.82787H33.3679C33.3772 9.82787 33.3847 9.8308 33.3906 9.83667C33.3964 9.84254 33.3994 9.85009 33.3994 9.85931V9.96874C33.3994 9.97796 33.3964 9.98551 33.3906 9.99138C33.3847 9.99725 33.3772 10.0002 33.3679 10.0002H33.251ZM33.8129 10.0128C33.7425 10.0128 33.683 10.0014 33.6343 9.9788C33.5865 9.95616 33.5496 9.92388 33.5236 9.88195C33.4985 9.83919 33.4842 9.78845 33.4809 9.72976C33.48 9.71299 33.4796 9.69412 33.4796 9.67316C33.4796 9.65136 33.48 9.63249 33.4809 9.61656C33.4842 9.55702 33.4993 9.50629 33.5262 9.46436C33.553 9.42244 33.5903 9.39015 33.6381 9.36751C33.6867 9.34487 33.745 9.33355 33.8129 9.33355C33.8817 9.33355 33.94 9.34487 33.9878 9.36751C34.0364 9.39015 34.0741 9.42244 34.101 9.46436C34.1278 9.50629 34.1429 9.55702 34.1463 9.61656C34.1471 9.63249 34.1475 9.65136 34.1475 9.67316C34.1475 9.69412 34.1471 9.71299 34.1463 9.72976C34.1429 9.78845 34.1282 9.83919 34.1022 9.88195C34.0771 9.92388 34.0402 9.95616 33.9915 9.9788C33.9437 10.0014 33.8842 10.0128 33.8129 10.0128ZM33.8129 9.85931C33.8507 9.85931 33.8779 9.84799 33.8947 9.82535C33.9123 9.80271 33.9224 9.76875 33.9249 9.72347C33.9257 9.71089 33.9261 9.69412 33.9261 9.67316C33.9261 9.65219 33.9257 9.63542 33.9249 9.62285C33.9224 9.5784 33.9123 9.54486 33.8947 9.52222C33.8779 9.49874 33.8507 9.487 33.8129 9.487C33.776 9.487 33.7488 9.49874 33.7312 9.52222C33.7136 9.54486 33.7039 9.5784 33.7023 9.62285C33.7014 9.63542 33.701 9.65219 33.701 9.67316C33.701 9.69412 33.7014 9.71089 33.7023 9.72347C33.7039 9.76875 33.7136 9.80271 33.7312 9.82535C33.7488 9.84799 33.776 9.85931 33.8129 9.85931ZM34.3027 10.2392C34.2934 10.2392 34.2859 10.2362 34.28 10.2304C34.2742 10.2245 34.2712 10.2169 34.2712 10.2077V9.37758C34.2712 9.36835 34.2742 9.36081 34.28 9.35494C34.2859 9.34907 34.2934 9.34613 34.3027 9.34613H34.4448C34.4532 9.34613 34.4603 9.34907 34.4662 9.35494C34.4729 9.36081 34.4762 9.36835 34.4762 9.37758V9.42411C34.4955 9.39812 34.5211 9.37674 34.553 9.35997C34.5848 9.34236 34.6242 9.33355 34.6712 9.33355C34.7131 9.33355 34.75 9.34026 34.7819 9.35368C34.8137 9.36626 34.841 9.38512 34.8636 9.41028C34.8863 9.43543 34.9039 9.46604 34.9165 9.5021C34.9299 9.53815 34.9374 9.57966 34.9391 9.62662C34.9399 9.64339 34.9404 9.6589 34.9404 9.67316C34.9404 9.68741 34.9399 9.70293 34.9391 9.7197C34.9374 9.76498 34.9303 9.80564 34.9177 9.8417C34.9051 9.87776 34.8875 9.90836 34.8649 9.93352C34.8423 9.95868 34.8146 9.97838 34.7819 9.99264C34.75 10.0061 34.7131 10.0128 34.6712 10.0128C34.6301 10.0128 34.594 10.0056 34.563 9.99138C34.5328 9.97629 34.5077 9.95532 34.4876 9.92849V10.2077C34.4876 10.2169 34.4846 10.2245 34.4788 10.2304C34.4729 10.2362 34.4653 10.2392 34.4561 10.2392H34.3027ZM34.6033 9.84422C34.6318 9.84422 34.654 9.83835 34.6699 9.82661C34.6859 9.81487 34.6972 9.79894 34.7039 9.77881C34.7114 9.75869 34.7161 9.73647 34.7177 9.71215C34.7194 9.68615 34.7194 9.66016 34.7177 9.63417C34.7161 9.60985 34.7114 9.58763 34.7039 9.5675C34.6972 9.54738 34.6859 9.53145 34.6699 9.51971C34.654 9.50797 34.6318 9.5021 34.6033 9.5021C34.5756 9.5021 34.5534 9.50839 34.5366 9.52096C34.5198 9.5327 34.5077 9.54822 34.5001 9.5675C34.4926 9.58679 34.4884 9.60775 34.4876 9.63039C34.4867 9.64632 34.4863 9.66184 34.4863 9.67693C34.4863 9.69202 34.4867 9.70796 34.4876 9.72473C34.4884 9.74569 34.493 9.7654 34.5014 9.78384C34.5098 9.80145 34.5224 9.81613 34.5391 9.82787C34.5559 9.83877 34.5773 9.84422 34.6033 9.84422Z" fill="#312A62"/>
<path d="M8.63121 24.6539L8.77463 22.9125L10.4987 24.2221C10.7659 24.4251 10.84 24.7953 10.6716 25.0855C10.4858 25.4056 10.0745 25.5124 9.75649 25.3232L8.63121 24.6539Z" fill="#312A62" stroke="#312A62" stroke-width="0.133515"/>
<path d="M3.92102 33.5267L5.36426 27.6253C5.41217 27.4294 5.65167 27.3553 5.80187 27.4899L6.88179 28.4577C6.95547 28.5238 6.98659 28.6251 6.96268 28.7211L5.65872 33.9556C5.5507 34.3892 5.13935 34.6767 4.69501 34.6291C4.15664 34.5714 3.7924 34.0526 3.92102 33.5267Z" fill="#312A62" stroke="#312A62" stroke-width="0.133515"/>
<path d="M4.80246 21.6027L4.07664 22.0296C3.95429 22.1016 3.87918 22.233 3.87918 22.3749V24.5157C3.87918 24.9397 3.53546 25.2834 3.11146 25.2834C2.68747 25.2834 2.34375 24.9397 2.34375 24.5157V21.9136C2.34375 21.6421 2.48128 21.3891 2.70913 21.2414L5.63021 19.3481C5.8362 19.2146 6.08356 19.1501 6.32363 19.2014C7.99964 19.5595 8.51066 20.9721 8.55221 21.6785L8.15166 26.6853L10.1084 28.5269C10.3102 28.7169 10.4363 28.9736 10.4632 29.2494L10.87 33.4199C10.9186 33.918 10.5839 34.3726 10.0938 34.474C9.52124 34.5924 8.97313 34.186 8.92019 33.6037L8.5767 29.8253C8.56095 29.652 8.48085 29.4909 8.3522 29.3737L5.36778 26.6558C5.0167 26.3361 4.82553 25.8771 4.84587 25.4026L5.00354 21.7235C5.00807 21.6178 4.89367 21.549 4.80246 21.6027Z" fill="#312A62" stroke="#312A62" stroke-width="0.133515"/>
<path d="M8.75248 16.8052C8.75248 17.8788 7.94123 18.7412 6.95002 18.7412C5.95882 18.7412 5.14757 17.8788 5.14757 16.8052C5.14757 15.7316 5.95882 14.8692 6.95002 14.8692C7.94123 14.8692 8.75248 15.7316 8.75248 16.8052Z" fill="#312A62" stroke="#312A62" stroke-width="0.133515"/>
<path d="M28.3544 24.8989C28.4764 24.796 28.4919 24.6138 28.3891 24.4918L26.713 22.5039C26.6101 22.3819 26.4279 22.3664 26.3059 22.4693C26.1839 22.5721 26.1684 22.7544 26.2713 22.8764L27.7611 24.6434L25.9941 26.1332C25.8721 26.2361 25.8566 26.4184 25.9595 26.5403C26.0623 26.6623 26.2446 26.6778 26.3666 26.575L28.3544 24.8989ZM11.5491 30.1432C11.6717 30.0286 11.8087 29.9074 11.9597 29.7808L11.5885 29.338C11.4302 29.4707 11.2854 29.5988 11.1546 29.721L11.5491 30.1432ZM12.8373 29.1035C13.1185 28.9021 13.4262 28.6945 13.7592 28.4846L13.451 27.9958C13.1086 28.2117 12.7914 28.4256 12.5008 28.6337L12.8373 29.1035ZM14.7189 27.9141C15.0312 27.7392 15.3599 27.5649 15.704 27.3934L15.4463 26.8762C15.0937 27.0519 14.7569 27.2306 14.4365 27.4101L14.7189 27.9141ZM16.7141 26.9192C17.0464 26.7726 17.3904 26.6297 17.7456 26.4922L17.5369 25.9534C17.1733 26.0942 16.8211 26.2404 16.4808 26.3906L16.7141 26.9192ZM18.7959 26.1129C19.1425 25.9966 19.4982 25.8861 19.8624 25.7824L19.7042 25.2267C19.3312 25.3329 18.9671 25.446 18.6122 25.5651L18.7959 26.1129ZM20.9416 25.5021C21.2986 25.4183 21.6626 25.3415 22.0335 25.2727L21.9281 24.7045C21.5481 24.7751 21.1751 24.8538 20.8095 24.9396L20.9416 25.5021ZM23.136 25.0952C23.4995 25.0456 23.8688 25.004 24.2436 24.9712L24.1932 24.3956C23.809 24.4292 23.4305 24.4719 23.0579 24.5227L23.136 25.0952ZM25.3569 24.9012C25.724 24.8871 26.0958 24.8817 26.472 24.8858L26.4783 24.308C26.0924 24.3038 25.7112 24.3093 25.3348 24.3238L25.3569 24.9012ZM27.5864 24.9254C27.7712 24.9365 27.957 24.95 28.1437 24.9659L28.1927 24.3901C28.0012 24.3739 27.8107 24.36 27.6211 24.3486L27.5864 24.9254Z" fill="#9D91ED"/>
</svg>
